<svg id="visual" viewBox="0 0 900 600" width="900" height="600" xmlns="http://www.w3.org/2000/svg" xmlns:xlink="http://www.w3.org/1999/xlink" version="1.1"><rect x="0" y="0" width="900" height="600" fill="#82b3d8"></rect><path d="M648 600L615.8 585.7C583.7 571.3 519.3 542.7 487.7 514.2C456 485.7 457 457.3 486.8 428.8C516.7 400.3 575.3 371.7 575.7 343C576 314.3 518 285.7 522.7 257C527.3 228.3 594.7 199.7 620 171.2C645.3 142.7 628.7 114.3 620.5 85.8C612.3 57.3 612.7 28.7 612.8 14.3L613 0L900 0L900 14.3C900 28.7 900 57.3 900 85.8C900 114.3 900 142.7 900 171.2C900 199.7 900 228.3 900 257C900 285.7 900 314.3 900 343C900 371.7 900 400.3 900 428.8C900 457.3 900 485.7 900 514.2C900 542.7 900 571.3 900 585.7L900 600Z" fill="#f7caca"></path><path d="M707 600L700.8 585.7C694.7 571.3 682.3 542.7 654.3 514.2C626.3 485.7 582.7 457.3 572.2 428.8C561.7 400.3 584.3 371.7 611.3 343C638.3 314.3 669.7 285.7 659.8 257C650 228.3 599 199.7 588.8 171.2C578.7 142.7 609.3 114.3 637.2 85.8C665 57.3 690 28.7 702.5 14.3L715 0L900 0L900 14.3C900 28.7 900 57.3 900 85.8C900 114.3 900 142.7 900 171.2C900 199.7 900 228.3 900 257C900 285.7 900 314.3 900 343C900 371.7 900 400.3 900 428.8C900 457.3 900 485.7 900 514.2C900 542.7 900 571.3 900 585.7L900 600Z" fill="#e3b69c"></path><path d="M694 600L705.7 585.7C717.3 571.3 740.7 542.7 736.7 514.2C732.7 485.7 701.3 457.3 676.7 428.8C652 400.3 634 371.7 645.5 343C657 314.3 698 285.7 723.5 257C749 228.3 759 199.7 747.3 171.2C735.7 142.7 702.3 114.3 685.8 85.8C669.3 57.3 669.7 28.7 669.8 14.3L670 0L900 0L900 14.3C900 28.7 900 57.3 900 85.8C900 114.3 900 142.7 900 171.2C900 199.7 900 228.3 900 257C900 285.7 900 314.3 900 343C900 371.7 900 400.3 900 428.8C900 457.3 900 485.7 900 514.2C900 542.7 900 571.3 900 585.7L900 600Z" fill="#b9aa75"></path><path d="M733 600L730.3 585.7C727.7 571.3 722.3 542.7 724 514.2C725.7 485.7 734.3 457.3 744.2 428.8C754 400.3 765 371.7 773.5 343C782 314.3 788 285.7 774.5 257C761 228.3 728 199.7 729.5 171.2C731 142.7 767 114.3 765.8 85.8C764.7 57.3 726.3 28.7 707.2 14.3L688 0L900 0L900 14.3C900 28.7 900 57.3 900 85.8C900 114.3 900 142.7 900 171.2C900 199.7 900 228.3 900 257C900 285.7 900 314.3 900 343C900 371.7 900 400.3 900 428.8C900 457.3 900 485.7 900 514.2C900 542.7 900 571.3 900 585.7L900 600Z" fill="#7ba165"></path><path d="M855 600L842.3 585.7C829.7 571.3 804.3 542.7 795.2 514.2C786 485.7 793 457.3 797 428.8C801 400.3 802 371.7 798 343C794 314.3 785 285.7 795 257C805 228.3 834 199.7 848.8 171.2C863.7 142.7 864.3 114.3 861 85.8C857.7 57.3 850.3 28.7 846.7 14.3L843 0L900 0L900 14.3C900 28.7 900 57.3 900 85.8C900 114.3 900 142.7 900 171.2C900 199.7 900 228.3 900 257C900 285.7 900 314.3 900 343C900 371.7 900 400.3 900 428.8C900 457.3 900 485.7 900 514.2C900 542.7 900 571.3 900 585.7L900 600Z" fill="#009473"></path></svg>