<svg id="visual" viewBox="0 0 540 960" width="540" height="960" xmlns="http://www.w3.org/2000/svg" xmlns:xlink="http://www.w3.org/1999/xlink" version="1.1"><path d="M0 308L8.2 306.5C16.3 305 32.7 302 49 327.7C65.3 353.3 81.7 407.7 98 417.2C114.3 426.7 130.7 391.3 147 343.3C163.3 295.3 179.7 234.7 196 209.2C212.3 183.7 228.7 193.3 245.2 222.2C261.7 251 278.3 299 294.8 292.5C311.3 286 327.7 225 344 226.5C360.3 228 376.7 292 393 309.7C409.3 327.3 425.7 298.7 442 313.2C458.3 327.7 474.7 385.3 491 394.8C507.3 404.3 523.7 365.7 531.8 346.3L540 327L540 0L531.8 0C523.7 0 507.3 0 491 0C474.7 0 458.3 0 442 0C425.7 0 409.3 0 393 0C376.7 0 360.3 0 344 0C327.7 0 311.3 0 294.8 0C278.3 0 261.7 0 245.2 0C228.7 0 212.3 0 196 0C179.7 0 163.3 0 147 0C130.7 0 114.3 0 98 0C81.7 0 65.3 0 49 0C32.7 0 16.3 0 8.2 0L0 0Z" fill="#6198ff"></path><path d="M0 567L8.2 568.7C16.3 570.3 32.7 573.7 49 591.3C65.3 609 81.7 641 98 631.3C114.3 621.7 130.7 570.3 147 551.2C163.3 532 179.7 545 196 561C212.3 577 228.7 596 245.2 581.5C261.7 567 278.3 519 294.8 514.3C311.3 509.7 327.7 548.3 344 566C360.3 583.7 376.7 580.3 393 572.3C409.3 564.3 425.7 551.7 442 558C458.3 564.3 474.7 589.7 491 589.7C507.3 589.7 523.7 564.3 531.8 551.7L540 539L540 325L531.8 344.3C523.7 363.7 507.3 402.3 491 392.8C474.7 383.3 458.3 325.7 442 311.2C425.7 296.7 409.3 325.3 393 307.7C376.7 290 360.3 226 344 224.5C327.7 223 311.3 284 294.8 290.5C278.3 297 261.7 249 245.2 220.2C228.7 191.3 212.3 181.7 196 207.2C179.7 232.7 163.3 293.3 147 341.3C130.7 389.3 114.3 424.7 98 415.2C81.7 405.7 65.3 351.3 49 325.7C32.7 300 16.3 303 8.2 304.5L0 306Z" fill="#3c80ff"></path><path d="M0 711L8.2 715.8C16.3 720.7 32.7 730.3 49 746.3C65.3 762.3 81.7 784.7 98 767.2C114.3 749.7 130.7 692.3 147 660.3C163.3 628.3 179.7 621.7 196 645.7C212.3 669.7 228.7 724.3 245.2 727.7C261.7 731 278.3 683 294.8 678.2C311.3 673.3 327.7 711.7 344 735.7C360.3 759.7 376.7 769.3 393 759.7C409.3 750 425.7 721 442 705C458.3 689 474.7 686 491 679.7C507.3 673.3 523.7 663.7 531.8 658.8L540 654L540 537L531.8 549.7C523.7 562.3 507.3 587.7 491 587.7C474.7 587.7 458.3 562.3 442 556C425.7 549.7 409.3 562.3 393 570.3C376.7 578.3 360.3 581.7 344 564C327.7 546.3 311.3 507.7 294.8 512.3C278.3 517 261.7 565 245.2 579.5C228.7 594 212.3 575 196 559C179.7 543 163.3 530 147 549.2C130.7 568.3 114.3 619.7 98 629.3C81.7 639 65.3 607 49 589.3C32.7 571.7 16.3 568.3 8.2 566.7L0 565Z" fill="#0066ff"></path><path d="M0 865L8.2 857C16.3 849 32.7 833 49 834.7C65.3 836.3 81.7 855.7 98 842.8C114.3 830 130.7 785 147 769C163.3 753 179.7 766 196 786.8C212.3 807.7 228.7 836.3 245.2 837.8C261.7 839.3 278.3 813.7 294.8 813.7C311.3 813.7 327.7 839.3 344 853.8C360.3 868.3 376.7 871.7 393 863.7C409.3 855.7 425.7 836.3 442 826.7C458.3 817 474.7 817 491 805.8C507.3 794.7 523.7 772.3 531.8 761.2L540 750L540 652L531.8 656.8C523.7 661.7 507.3 671.3 491 677.7C474.7 684 458.3 687 442 703C425.7 719 409.3 748 393 757.7C376.7 767.3 360.3 757.7 344 733.7C327.7 709.7 311.3 671.3 294.8 676.2C278.3 681 261.7 729 245.2 725.7C228.7 722.3 212.3 667.7 196 643.7C179.7 619.7 163.3 626.3 147 658.3C130.7 690.3 114.3 747.7 98 765.2C81.7 782.7 65.3 760.3 49 744.3C32.7 728.3 16.3 718.7 8.2 713.8L0 709Z" fill="#0059dd"></path><path d="M0 961L8.2 961C16.3 961 32.7 961 49 961C65.3 961 81.7 961 98 961C114.3 961 130.7 961 147 961C163.3 961 179.7 961 196 961C212.3 961 228.7 961 245.2 961C261.7 961 278.3 961 294.8 961C311.3 961 327.7 961 344 961C360.3 961 376.7 961 393 961C409.3 961 425.7 961 442 961C458.3 961 474.7 961 491 961C507.3 961 523.7 961 531.8 961L540 961L540 748L531.8 759.2C523.7 770.3 507.3 792.7 491 803.8C474.7 815 458.3 815 442 824.7C425.7 834.3 409.3 853.7 393 861.7C376.7 869.7 360.3 866.3 344 851.8C327.7 837.3 311.3 811.7 294.8 811.7C278.3 811.7 261.7 837.3 245.2 835.8C228.7 834.3 212.3 805.7 196 784.8C179.7 764 163.3 751 147 767C130.7 783 114.3 828 98 840.8C81.7 853.7 65.3 834.3 49 832.7C32.7 831 16.3 847 8.2 855L0 863Z" fill="#004cbb"></path></svg>