<?xml version="1.0" encoding="UTF-8" standalone="no"?>
<!-- Created with Inkscape (http://www.inkscape.org/) -->

<svg
   version="1.1"
   id="svg1652"
   width="1600"
   height="1600"
   viewBox="0 0 1600 1600"
   sodipodi:docname="heart-vector-pdv.svg"
   inkscape:version="1.2 (dc2aedaf03, 2022-05-15)"
   xmlns:inkscape="http://www.inkscape.org/namespaces/inkscape"
   xmlns:sodipodi="http://sodipodi.sourceforge.net/DTD/sodipodi-0.dtd"
   xmlns="http://www.w3.org/2000/svg"
   xmlns:svg="http://www.w3.org/2000/svg">
  <defs
     id="defs1656">
    <clipPath
       clipPathUnits="userSpaceOnUse"
       id="clipPath1668">
      <path
         d="M 0,1200 H 1200 V 0 H 0 Z"
         id="path1666" />
    </clipPath>
  </defs>
  <sodipodi:namedview
     id="namedview1654"
     pagecolor="#ffffff"
     bordercolor="#000000"
     borderopacity="0.25"
     inkscape:showpageshadow="2"
     inkscape:pageopacity="0.0"
     inkscape:pagecheckerboard="0"
     inkscape:deskcolor="#d1d1d1"
     showgrid="false"
     inkscape:zoom="0.523125"
     inkscape:cx="800"
     inkscape:cy="800.95579"
     inkscape:window-width="1920"
     inkscape:window-height="1017"
     inkscape:window-x="-8"
     inkscape:window-y="-8"
     inkscape:window-maximized="1"
     inkscape:current-layer="g1660">
    <inkscape:page
       x="0"
       y="0"
       id="page1658"
       width="1600"
       height="1600" />
  </sodipodi:namedview>
  <g
     id="g1660"
     inkscape:groupmode="layer"
     inkscape:label="Page 1"
     transform="matrix(1.3333333,0,0,-1.3333333,0,1600)">
    <g
       id="g1662">
      <g
         id="g1664"
         clip-path="url(#clipPath1668)">
        <g
           id="g1670"
           transform="translate(620.6348,1037.2959)">
          <path
             d="m 0,0 c -0.244,-12.461 9.66,-22.762 22.118,-23.005 12.461,-0.244 22.762,9.66 23.005,22.121 0.4,18.869 2.413,32.426 6.921,41.529 3.265,6.592 8.634,10.962 16.774,13.821 11.778,4.105 17.995,16.981 13.891,28.756 C 78.604,95.002 65.729,101.22 53.951,97.115 33.974,90.095 20.401,78.576 11.521,60.644 3.883,45.221 0.539,25.599 0,0"
             style="fill:#ff6600;fill-opacity:1;fill-rule:evenodd;stroke:none"
             id="path1672" />
        </g>
        <g
           id="g1674"
           transform="translate(792.3145,835.9023)">
          <path
             d="m 0,0 h 90.316 c 12.368,0 22.397,-10.026 22.397,-22.396 0,-12.371 -10.029,-22.397 -22.397,-22.397 H 0 C -27.986,-44.793 -28.648,0 0,0"
             style="fill:#c75000;fill-opacity:1;fill-rule:evenodd;stroke:none"
             id="path1676" />
        </g>
        <g
           id="g1678"
           transform="translate(882.5098,831.9971)">
          <path
             d="m 0,0 c 10.213,0 18.491,-8.281 18.491,-18.491 0,-10.211 -8.278,-18.492 -18.491,-18.492 -10.214,0 -18.492,8.281 -18.492,18.492 C -18.492,-8.281 -10.214,0 0,0"
             style="fill:#542200;fill-opacity:1;fill-rule:evenodd;stroke:none"
             id="path1680" />
        </g>
        <g
           id="g1682"
           transform="translate(772.1777,888.1621)">
          <path
             d="m 0,0 h 90.313 c 12.372,0 22.401,-10.026 22.401,-22.393 0,-12.372 -10.029,-22.401 -22.401,-22.401 H 0 C -27.986,-44.794 -28.648,0 0,0"
             style="fill:#c75000;fill-opacity:1;fill-rule:evenodd;stroke:none"
             id="path1684" />
        </g>
        <g
           id="g1686"
           transform="translate(862.373,884.2598)">
          <path
             d="m 0,0 c 10.213,0 18.491,-8.281 18.491,-18.491 0,-10.214 -8.278,-18.492 -18.491,-18.492 -10.214,0 -18.492,8.278 -18.492,18.492 C -18.492,-8.281 -10.214,0 0,0"
             style="fill:#542200;fill-opacity:1;fill-rule:evenodd;stroke:none"
             id="path1688" />
        </g>
        <g
           id="g1690"
           transform="translate(588.043,516.5605)">
          <path
             d="M 0,0 C 25.018,0 45.302,20.283 45.302,45.302 45.302,70.323 25.018,90.607 0,90.607 h -1.947 c -59.67,0 -113.819,-24.313 -153.031,-63.528 -39.217,-39.215 -63.528,-93.363 -63.528,-153.03 v -159.572 c 0,-25.019 20.283,-45.302 45.302,-45.302 25.018,0 45.302,20.283 45.302,45.302 v 159.572 c 0,34.654 14.156,66.138 36.986,88.968 C -68.085,-14.156 -36.606,0 -1.947,0 Z"
             style="fill:#497bad;fill-opacity:1;fill-rule:evenodd;stroke:none"
             id="path1692" />
        </g>
        <g
           id="g1694"
           transform="translate(673.1904,476.3623)">
          <path
             d="M 0,0 C 25.019,0 45.302,20.283 45.302,45.302 45.302,70.323 25.019,90.606 0,90.606 h -1.948 c -59.666,0 -113.815,-24.315 -153.029,-63.527 -39.218,-39.219 -63.529,-93.363 -63.529,-153.033 v -159.569 c 0,-25.019 20.283,-45.302 45.302,-45.302 25.021,0 45.305,20.283 45.305,45.302 v 159.569 c 0,34.658 14.153,66.14 36.983,88.968 C -68.085,-14.155 -36.602,0 -1.948,0 Z"
             style="fill:#c75000;fill-opacity:1;fill-rule:evenodd;stroke:none"
             id="path1696" />
        </g>
        <g
           id="g1698"
           transform="translate(576.5342,826.7559)">
          <path
             d="M 0,0 C 25.021,0 45.305,-20.283 45.305,-45.302 45.305,-70.32 25.021,-90.604 0,-90.604 h -1.948 c -59.666,0 -113.815,24.314 -153.03,63.529 -39.214,39.215 -63.525,93.363 -63.525,153.026 v 159.576 c 0,25.018 20.28,45.302 45.299,45.302 25.021,0 45.306,-20.284 45.306,-45.302 V 125.951 c 0,-34.654 14.152,-66.138 36.982,-88.965 C -68.085,14.156 -36.603,0 -1.948,0 Z"
             style="fill:#497bad;fill-opacity:1;fill-rule:evenodd;stroke:none"
             id="path1700" />
        </g>
        <g
           id="g1702"
           transform="translate(365.9287,1112.0361)">
          <path
             d="M 0,0 C 0,20.654 16.747,37.404 37.401,37.404 58.06,37.404 74.81,20.654 74.81,0 74.81,-20.658 58.06,-37.404 37.401,-37.404 16.747,-37.404 0,-20.658 0,0"
             style="fill:#204d7a;fill-opacity:1;fill-rule:evenodd;stroke:none"
             id="path1704" />
        </g>
        <g
           id="g1706"
           transform="translate(477.6992,729.0039)">
          <path
             d="M 0,0 C 72.09,0 130.893,59.945 130.893,133.44 130.893,206.935 72.09,266.88 0,266.88 -72.094,266.88 -130.893,206.935 -130.893,133.44 -130.893,59.945 -72.094,0 0,0"
             style="fill:#ffcdab;fill-opacity:1;fill-rule:evenodd;stroke:none"
             id="path1708" />
        </g>
        <g
           id="g1710"
           transform="translate(584.4063,897.3887)">
          <path
             d="m 0,0 c -8.446,16.809 -18.898,28.324 -31.117,35.145 -12.205,6.814 -27.058,9.405 -44.198,8.325 l -3.618,57.647 c 28.087,1.767 53.506,-3.091 75.846,-15.564 22.325,-12.464 40.71,-32.082 54.629,-59.782 z"
             style="fill:#497bad;fill-opacity:1;fill-rule:evenodd;stroke:none"
             id="path1712" />
        </g>
        <g
           id="g1714"
           transform="translate(639.8066,959.6807)">
          <path
             d="M 0,0 C -9.886,9.883 -23.483,16.019 -38.403,16.019 -53.321,16.019 -66.918,9.883 -76.804,0 -86.689,-9.889 -92.826,-23.486 -92.826,-38.403 V -252.009 H 16.023 V -38.403 C 16.023,-23.486 9.886,-9.889 0,0 m -38.403,106.629 c 39.932,0 76.201,-16.307 102.465,-42.57 26.263,-26.264 42.567,-62.53 42.567,-102.462 v -304.209 h -290.063 v 304.209 c 0,39.932 16.304,76.198 42.568,102.462 26.264,26.263 62.532,42.57 102.463,42.57"
             style="fill:#c75000;fill-opacity:1;fill-rule:evenodd;stroke:none"
             id="path1716" />
        </g>
        <g
           id="g1718"
           transform="translate(525.5166,870.0381)">
          <path
             d="m 0,0 c 64.311,0 122.128,-27.796 162.098,-72.027 14.758,3.493 30.15,5.353 45.979,5.353 109.838,0 198.878,-89.043 198.878,-198.882 0,-64.566 -30.771,-121.942 -78.448,-158.27 -53.677,-40.903 -89.596,-89.296 -113.203,-152.515 -22.334,-59.813 -79.989,-102.402 -147.59,-102.402 -78.13,0 -142.972,56.891 -155.359,131.507 -12.36,74.46 -39.043,135.591 -85.224,195.295 -28.559,36.917 -45.552,83.233 -45.552,133.52 C -218.421,-97.789 -120.632,0 0,0"
             style="fill:#ff6600;fill-opacity:1;fill-rule:evenodd;stroke:none"
             id="path1720" />
        </g>
        <g
           id="g1722"
           transform="translate(807.96,788.9922)">
          <path
             d="M 0,0 H -222.858 V 109.271 H -54.636 C -24.585,109.271 0,84.685 0,54.636 Z"
             style="fill:#ffcdab;fill-opacity:1;fill-rule:evenodd;stroke:none"
             id="path1724" />
        </g>
        <g
           id="g1726"
           transform="translate(596.6084,767.7324)">
          <path
             d="m 0,0 c 0,-25.018 -20.283,-45.302 -45.302,-45.302 -25.021,0 -45.304,20.284 -45.304,45.302 v 1.947 c 0,59.667 24.312,113.816 63.527,153.031 39.215,39.217 93.363,63.528 153.03,63.528 h 159.572 c 25.019,0 45.302,-20.283 45.302,-45.305 0,-25.019 -20.283,-45.299 -45.302,-45.299 H 125.951 C 91.297,127.902 59.813,113.746 36.983,90.916 14.152,68.089 0,36.605 0,1.947 Z"
             style="fill:#497bad;fill-opacity:1;fill-rule:evenodd;stroke:none"
             id="path1728" />
        </g>
        <g
           id="g1730"
           transform="translate(881.8848,978.3408)">
          <path
             d="M 0,0 C 20.658,0 37.405,-16.75 37.405,-37.407 37.405,-58.063 20.658,-74.81 0,-74.81 c -20.657,0 -37.404,16.747 -37.404,37.403 C -37.404,-16.75 -20.657,0 0,0"
             style="fill:#204d7a;fill-opacity:1;fill-rule:evenodd;stroke:none"
             id="path1732" />
        </g>
        <g
           id="g1734"
           transform="translate(568.9463,1060.9971)">
          <path
             d="m 0,0 v 90.316 c 0,12.37 10.025,22.397 22.396,22.397 12.368,0 22.397,-10.027 22.397,-22.397 V 0 C 44.793,-27.987 0,-28.648 0,0"
             style="fill:#ff6600;fill-opacity:1;fill-rule:evenodd;stroke:none"
             id="path1736" />
        </g>
        <g
           id="g1738"
           transform="translate(572.8506,1151.1914)">
          <path
             d="m 0,0 c 0,10.214 8.278,18.492 18.492,18.492 10.21,0 18.491,-8.278 18.491,-18.492 0,-10.21 -8.281,-18.491 -18.491,-18.491 C 8.278,-18.491 0,-10.21 0,0"
             style="fill:#542200;fill-opacity:1;fill-rule:evenodd;stroke:none"
             id="path1740" />
        </g>
        <g
           id="g1742"
           transform="translate(559.0879,1037.2959)">
          <path
             d="m 0,0 c 0.244,-12.461 -9.66,-22.762 -22.121,-23.005 -12.461,-0.244 -22.762,9.66 -23.006,22.121 -0.396,18.869 -2.409,32.426 -6.92,41.529 -3.264,6.592 -8.634,10.962 -16.771,13.821 -11.775,4.105 -17.996,16.981 -13.891,28.756 4.102,11.78 16.977,17.998 28.755,13.893 19.977,-7.02 33.553,-18.539 42.433,-36.471 C -3.883,45.221 -0.539,25.599 0,0"
             style="fill:#ff6600;fill-opacity:1;fill-rule:evenodd;stroke:none"
             id="path1744" />
        </g>
        <g
           id="g1746"
           transform="translate(478.876,1113.3125)">
          <path
             d="m 0,0 c 0,10.214 8.281,18.495 18.491,18.495 10.214,0 18.492,-8.281 18.492,-18.495 0,-10.21 -8.278,-18.491 -18.492,-18.491 C 8.281,-18.491 0,-10.21 0,0"
             style="fill:#542200;fill-opacity:1;fill-rule:evenodd;stroke:none"
             id="path1748" />
        </g>
        <g
           id="g1750"
           transform="translate(408.7871,424.0186)">
          <path
             d="m 0,0 c -14.097,32.785 -32.579,63.615 -56.14,94.078 -23.345,30.181 -38.959,66.644 -43.884,106.42 6.76,-15.726 15.464,-30.419 25.801,-43.782 C -36.556,108.019 -12.911,58.29 0,0 m 418.413,355.966 c 62.645,-33.482 105.272,-99.506 105.272,-175.502 0,-64.567 -30.772,-121.943 -78.449,-158.271 -53.676,-40.903 -89.595,-89.296 -113.203,-152.514 -22.334,-59.814 -79.988,-102.403 -147.59,-102.403 -78.129,0 -142.971,56.892 -155.358,131.507 -1.398,8.425 -2.983,16.679 -4.757,24.779 25.671,-41.563 71.638,-69.266 124.081,-69.266 62.555,0 115.906,39.415 136.574,94.762 21.85,58.505 55.087,103.286 104.759,141.133 44.119,33.619 72.593,86.715 72.593,146.466 0,45.527 -16.537,87.183 -43.922,119.309"
             style="fill:#eb5e00;fill-opacity:1;fill-rule:evenodd;stroke:none"
             id="path1752" />
        </g>
        <g
           id="g1754"
           transform="translate(422.5615,802.9268)">
          <path
             d="m 0,0 c 48.286,0 83.274,-50.268 78.155,-112.279 -5.122,-62.008 -48.417,-112.276 -96.699,-112.276 -48.286,0 -83.278,50.268 -78.155,112.276 C -91.58,-50.268 -48.286,0 0,0"
             style="fill:#ff8330;fill-opacity:1;fill-rule:evenodd;stroke:none"
             id="path1756" />
        </g>
      </g>
    </g>
  </g>
</svg>
